<svg xmlns="http://www.w3.org/2000/svg" viewBox="0 0 512 512" role="img" aria-label="Idea di Luce">
  <circle cx="256" cy="256" r="256" fill="#0c0c0d"/>
  <g fill="#fff" transform="translate(96 150)">
    <!-- stylized Idl: I | d | l -->
    <path d="M28 20h18v172H28V20zm0-8h18v8H28V12zm0 180h18v8H28v-8z"/>
    <path d="M118 84c-42 0-76 34-76 76s34 76 76 76c18 0 34-6 47-17v25h20V20h-20v78c-13-9-29-14-47-14zm0 20c31 0 56 25 56 56s-25 56-56 56-56-25-56-56 25-56 56-56z"/>
    <path d="M246 20h18v172h-18V20zm0-8h18v8h-18V12zm0 180h18v8h-18v-8z"/>
  </g>
</svg>
