<svg xmlns="http://www.w3.org/2000/svg" viewBox="230 530 2550 440" role="img" aria-label="Idea di Luce">
  <g fill="#010202">
    <polygon points="300.83,588.39 321.63,557.55 250.26,557.55 271.06,588.39 271.06,910.51 250.26,941.35 321.63,941.35 300.83,910.51"/>
    <path d="M627.07,941.35h50.57l-20.8-30.84V588.39v-2.07v-28.77h-50.57l20.8,30.84v128.29c-25.96-42.3-72.62-70.53-125.88-70.53c-81.51,0-147.6,66.08-147.6,147.59c0,81.51,66.08,147.59,147.6,147.59c53.26,0,99.93-28.22,125.88-70.53v39.68V941.35z M509.05,935.14c-69.82,0-122.75-63.14-122.75-141.03s52.93-141.03,122.75-141.03c53.85,0,99.8,37.57,118.02,90.48v101.09C608.85,897.57,562.89,935.14,509.05,935.14z"/>
    <polygon points="1754.5,941.35 1825.86,941.35 1805.07,910.51 1805.07,588.39 1805.07,586.32 1805.07,557.55 1754.5,557.55 1775.29,588.39 1775.29,910.51"/>
    <path d="M1572.17,941.35h50.57l-20.8-30.84V588.39v-2.07v-28.77h-50.57l20.8,30.84v128.29c-25.96-42.3-72.62-70.53-125.89-70.53c-81.51,0-147.59,66.08-147.59,147.59c0,81.51,66.08,147.59,147.59,147.59c53.27,0,99.93-28.22,125.89-70.53v39.68V941.35z M1454.15,935.14c-69.82,0-122.75-63.14-122.75-141.03s52.93-141.03,122.75-141.03c53.85,0,99.8,37.57,118.02,90.48v101.09C1553.95,897.57,1507.99,935.14,1454.15,935.14z"/>
    <path d="M1000.59,746.43l-1.91-4.39c-17.69-46.49-58.89-81.68-107.48-92.36c-89.65-19.7-179.95,47.74-182.25,140.42c-2.07,83.41,67.78,149.61,147.7,151.14c4.72,0.09,12.03-0.41,17.84-1.01c6.61-0.68,141.59-29.59,88.57-177.43L1000.59,746.43z M739.76,778.49c6.63-70.76,61.07-138.43,138.5-123.54c46.11,8.87,80.41,48.03,94.08,91.64l-224.58,98C740.64,823.22,737.72,800.31,739.76,778.49z M883.01,932.26c-62.58,14.87-110.01-24.9-131.39-77.18l207-90.32C985.03,830.12,968.27,904.6,883.01,932.26z"/>
    <path d="M2749.74,746.43l-1.92-4.39c-17.68-46.49-58.88-81.68-107.48-92.36c-89.65-19.7-179.95,47.74-182.25,140.42c-2.07,83.41,67.78,149.61,147.7,151.14c4.72,0.09,12.03-0.41,17.84-1.01c6.61-0.68,141.59-29.59,88.57-177.43L2749.74,746.43z M2488.91,778.49c6.63-70.76,61.07-138.43,138.5-123.54c46.11,8.87,80.41,48.03,94.08,91.64l-224.58,98C2489.78,823.22,2486.86,800.31,2488.91,778.49z M2632.16,932.26c-62.58,14.87-110.01-24.9-131.39-77.18l207-90.32C2734.18,830.12,2717.42,904.6,2632.16,932.26z"/>
    <g>
      <polygon points="1654.43,941.35 1725.8,941.35 1705,910.51 1705,678.11 1705,671.79 1705,647.27 1654.43,647.27 1675.22,678.11 1675.22,910.51"/>
      <path d="M1686.33,631.78c10.82,0,19.6-8.77,19.6-19.6c0-10.82-8.77-19.6-19.6-19.6s-19.6,8.77-19.6,19.6C1666.74,623.01,1675.51,631.78,1686.33,631.78z"/>
    </g>
    <path d="M2297.12,934.99c-1.91,0.1-3.84,0.14-5.77,0.14c-69.82,0-123.7-63.49-123.7-141.38c0-77.89,53.88-140.67,123.7-140.67c1.56,0,3.11,0.03,4.66,0.09c55.58,2.24,92.38,49.04,106.76,102.7l26-7.47c-16.89-58.28-72.47-99.3-135.51-101.94c-3.13-0.13-6.28-0.31-9.46-0.31c-80.42,0-145.6,66.08-145.6,147.59c0,81.51,65.19,147.59,145.6,147.59c8.88,0,17.57-0.86,26.03-2.35c56.38-9.95,103.77-48.23,118.9-101.65h-13.03C2399.75,892.14,2350.89,932.3,2297.12,934.99z"/>
    <path d="M1216.52,941.35h50.57l-20.8-30.84V716.66c0-41.82-34.07-70.41-88.83-70.5c-44.97,0-83.37,36.06-78.92,99.16c-32.8,17.78-55.93,52.24-55.93,91.95c0,57.98,49.32,105.18,106.06,105.18c37.3,0,69.85-20.37,87.85-50.76v18.82V941.35z M1157.46,653.08c34.02,0,59.06,30.88,59.06,63.58h0v66.57c-18-30.38-50.56-50.76-87.85-50.76c-15.06,0-29.58,3.32-42.81,9.25C1082.2,693.58,1111.69,653.08,1157.46,653.08z M1136.8,933.34c-63.98,0-80.58-43.01-80.58-96.07s13.28-96.07,80.58-96.07c36.72,0,67.9,26.46,79.72,63.42v65.28C1204.7,906.88,1173.52,933.34,1136.8,933.34z"/>
    <path d="M2054.09,941.35h50.57l-20.79-30.84v-232.4v-6.32v-24.52h-50.57l20.79,30.84v213.73c0,0-17.34,43.27-80.08,43.27c-29.04-0.54-58.3-21.36-69.57-54.75V678.11v-15.42v-15.42h-50.57l20.8,30.84v202.25c14.29,33.19,47.34,61.41,98.79,61.41c35.4,0,61.65-17.3,80.63-36.24v4.98V941.35z"/>
  </g>
</svg>
